<?xml version="1.0" encoding="utf-8"?>
<!-- Generated by IcoMoon.io -->
<!DOCTYPE svg PUBLIC "-//W3C//DTD SVG 1.1//EN" "http://www.w3.org/Graphics/SVG/1.1/DTD/svg11.dtd">
<svg version="1.1" xmlns="http://www.w3.org/2000/svg" xmlns:xlink="http://www.w3.org/1999/xlink" width="32" height="32" viewBox="0 0 32 32">
<path fill="#000" d="M30.718 17.282c0.707 0 1.282-0.575 1.282-1.282s-0.575-1.282-1.282-1.282h-3.576v-2.294h3.576c0.707 0 1.282-0.575 1.282-1.282s-0.575-1.282-1.282-1.282h-4.859c-0.706 0-1.281 0.575-1.281 1.282v9.715c0 0.707 0.576 1.282 1.281 1.282h4.859c0.706 0 1.282-0.575 1.282-1.282 0-0.706-0.576-1.282-1.282-1.282h-3.576v-2.293h3.576z"></path>
<path fill="#000" d="M21.576 9.86c-0.706 0-1.282 0.575-1.282 1.282v6.011l-4.979-6.779c-0.241-0.322-0.623-0.513-1.024-0.513-0.137 0-0.275 0.021-0.407 0.066-0.524 0.175-0.876 0.664-0.876 1.216v9.715c0 0.707 0.575 1.282 1.282 1.282s1.282-0.575 1.282-1.282v-6.010l4.978 6.78c0.242 0.321 0.625 0.513 1.024 0.513 0.138 0 0.275-0.022 0.408-0.067 0.525-0.173 0.876-0.663 0.876-1.216v-9.715c0-0.707-0.575-1.282-1.281-1.282z"></path>
<path fill="#000" d="M9.883 9.86c-0.707 0-1.282 0.575-1.282 1.282v9.715c0 0.707 0.575 1.282 1.282 1.282s1.281-0.575 1.281-1.282v-9.715c0-0.707-0.575-1.282-1.281-1.282z"></path>
<path fill="#000" d="M6.139 19.576h-3.576v-8.434c0-0.707-0.574-1.282-1.281-1.282s-1.282 0.575-1.282 1.282v9.715c0 0.707 0.575 1.282 1.282 1.282h4.858c0.707 0 1.281-0.575 1.281-1.282 0-0.706-0.574-1.282-1.281-1.282z"></path>
</svg>
