<?xml version="1.0" encoding="utf-8"?>
<!-- Generated by IcoMoon.io -->
<!DOCTYPE svg PUBLIC "-//W3C//DTD SVG 1.1//EN" "http://www.w3.org/Graphics/SVG/1.1/DTD/svg11.dtd">
<svg version="1.1" xmlns="http://www.w3.org/2000/svg" xmlns:xlink="http://www.w3.org/1999/xlink" width="32" height="32" viewBox="0 0 32 32">
<path fill="#000" d="M7.889 7.825c0.635-0.296 1.185-0.636 1.653-1.018 0.848-0.678 1.569-1.612 2.163-2.799 0.296-0.509 0.529-1.091 0.7-1.75 0.169-0.656 0.318-1.408 0.444-2.257h4.453v7.38h7.444v5.726h-7.444v8.206c0 0.933 0.011 1.665 0.033 2.195 0.020 0.532 0.095 0.944 0.223 1.241 0.213 0.509 0.636 0.975 1.273 1.4 0.34 0.212 0.701 0.36 1.082 0.445s0.804 0.128 1.272 0.128c0.848 0 1.663-0.117 2.448-0.351s1.581-0.625 2.387-1.177v5.089c-1.443 0.594-2.674 1.039-3.691 1.336-1.145 0.255-2.353 0.381-3.627 0.381-0.763 0-1.38-0.052-1.845-0.159-0.466-0.106-0.996-0.244-1.589-0.413-1.104-0.383-2.059-0.933-2.863-1.655-0.891-0.678-1.422-1.399-1.591-2.162-0.34-0.637-0.509-1.739-0.509-3.308v-11.197h-4.325v-4.518c0.635-0.211 1.272-0.466 1.909-0.763z"></path>
</svg>
