<?xml version="1.0" encoding="utf-8"?>
<!-- Generated by IcoMoon.io -->
<!DOCTYPE svg PUBLIC "-//W3C//DTD SVG 1.1//EN" "http://www.w3.org/Graphics/SVG/1.1/DTD/svg11.dtd">
<svg version="1.1" xmlns="http://www.w3.org/2000/svg" xmlns:xlink="http://www.w3.org/1999/xlink" width="32" height="32" viewBox="0 0 32 32">
<path fill="#000" d="M14.261 8.411h-4.282c0.484 0.688 1.006 1.409 1.568 2.16s1.109 1.479 1.644 2.179c0.536 0.701 1.032 1.351 1.491 1.95s0.841 1.090 1.147 1.472l5.696-5.161h-3.441l-0.459-1.989h12.501l-1.3 1.989h-2.255c-0.249 0.082-0.504 0.133-0.765 0.152-0.153 0.026-0.453 0.191-0.899 0.497-2.419 1.658-4.811 3.517-6.823 5.658-0.408 0.433-0.651 0.765-0.726 0.994-0.348 1.34-0.022 3.209 0.038 4.568 0.026 0.573 0.051 0.95 0.077 1.128 0.128 0.026 0.402 0.038 0.822 0.038 0.924 0 1.848 0 2.772 0 0.433 0 0.727 0.012 0.88 0.038l-0.076 1.453c-0.153-0.025-0.51-0.044-1.071-0.057-3.82-0.084-7.632 0.036-11.45 0.114-0.599 0.013-1.052 0.020-1.357 0.020l0.191-1.376c0.177-0.026 0.464-0.038 0.86-0.038 0.827 0.026 1.649-0.025 2.466-0.153 0.383-0.076 0.65-0.204 0.803-0.382 0.076-0.077 0.127-0.357 0.152-0.841 0.050-1.128 0.050-2.256 0-3.384-0.026-0.548-0.052-0.924-0.076-1.128-0.025-0.128-0.21-0.433-0.555-0.918-1.956-2.748-4.167-5.366-6.461-7.838-0.497-0.535-0.885-0.917-1.166-1.146h-4.205v-2.026h14.261v2.026zM27.526 25.386v-2.065l2.333 0.229-0.268 2.065-2.065-0.229zM32 13.419l-2.218 8.678-1.911-0.153-0.077-8.945 4.206 0.42z"></path>
</svg>
