<?xml version="1.0" encoding="utf-8"?>
<!-- Generated by IcoMoon.io -->
<!DOCTYPE svg PUBLIC "-//W3C//DTD SVG 1.1//EN" "http://www.w3.org/Graphics/SVG/1.1/DTD/svg11.dtd">
<svg version="1.1" xmlns="http://www.w3.org/2000/svg" xmlns:xlink="http://www.w3.org/1999/xlink" width="32" height="32" viewBox="0 0 32 32">
<path fill="#000" d="M28.889 8.831h-8.016v-2.001h8.016v2.001h0zM15.537 17.034c1.069 2.047 1.033 4.088-0.109 6.121-1.401 2.311-3.962 2.845-6.465 2.845h-8.964v-20h9.613c2.424 0.040 4.141 0.745 5.155 2.13 0.609 0.85 0.91 1.869 0.91 3.054 0 1.223-0.306 2.201-0.92 2.944-0.341 0.417-0.847 0.796-1.515 1.138 1.013 0.373 1.781 0.959 2.295 1.768 0.517 0.805-0.514-0.808 0 0 0.517 0.805-0.514-0.808 0 0zM4.591 13.885h4.212c0.865 0 1.566-0.165 2.104-0.495s0.807-0.917 0.807-1.759c0-0.93-0.355-1.548-1.069-1.845-0.613-0.207-1.398-0.313-2.349-0.313h-3.704v4.412zM12.119 19.678c0-1.039-0.423-1.757-1.266-2.143-0.471-0.219-1.137-0.331-1.99-0.338h-4.272v5.33h4.206c0.864 0 1.533-0.114 2.015-0.351 0.87-0.436 1.307-1.266 1.307-2.498zM31.985 19.268h-10.38c0.224 2.369 1.406 3.556 3.546 3.561 1.328 0.008 2.273-0.538 2.834-1.64h3.805c-0.1 0.849-0.558 1.713-1.381 2.589-1.276 1.392-3.065 2.091-5.362 2.091-1.898 0-3.571-0.589-5.023-1.763-1.448-1.177-2.175-3.088-2.175-5.738 0-2.486 0.653-4.387 1.962-5.712 1.314-1.326 3.010-1.987 5.1-1.987 2.43-0.086 4.368 0.844 5.814 2.792 1.009 1.848 1.353 3.075 1.259 5.807zM28.118 16.797c-0.070-0.995-0.401-1.75-0.997-2.264-1.486-1.050-2.964-1.034-4.434 0.046-0.529 0.543-0.859 1.283-0.994 2.219h6.424z"></path>
</svg>
