<?xml version="1.0" encoding="utf-8"?>
<!-- Generated by IcoMoon.io -->
<!DOCTYPE svg PUBLIC "-//W3C//DTD SVG 1.1//EN" "http://www.w3.org/Graphics/SVG/1.1/DTD/svg11.dtd">
<svg version="1.1" xmlns="http://www.w3.org/2000/svg" xmlns:xlink="http://www.w3.org/1999/xlink" width="32" height="32" viewBox="0 0 32 32">
<path fill="#000" d="M15.998 1c8.286 0 15.002 6.718 15.002 15 0 8.285-6.716 15-15.002 15-8.283 0-14.998-6.715-14.998-15 0-8.281 6.716-15 14.998-15zM24.705 18.251c0.119-0.459-0.157-0.926-0.616-1.046-0.072-0.018-0.144-0.028-0.215-0.028-0.381 0-0.73 0.257-0.829 0.646-0.829 3.215-3.727 5.463-7.046 5.463s-6.217-2.247-7.046-5.463c-0.101-0.389-0.446-0.646-0.827-0.646-0.071 0-0.143 0.009-0.215 0.028-0.458 0.119-0.734 0.587-0.619 1.046 1.027 3.974 4.606 6.75 8.707 6.75 4.104 0 7.683-2.776 8.707-6.75z"></path>
</svg>
