<?xml version="1.0" encoding="utf-8"?>
<!-- Generated by IcoMoon.io -->
<!DOCTYPE svg PUBLIC "-//W3C//DTD SVG 1.1//EN" "http://www.w3.org/Graphics/SVG/1.1/DTD/svg11.dtd">
<svg version="1.1" xmlns="http://www.w3.org/2000/svg" xmlns:xlink="http://www.w3.org/1999/xlink" width="32" height="32" viewBox="0 0 32 32">
<path fill="#000" d="M19.718 20.541c3.318 1.613 6.802 4.576 8.221 8.001-1.82 1.475-2.057 1.659-4.196 3.458-2.061-3.966-4.556-6.152-7.967-7.027-2.003 2.581-5.264 5.596-10.362 6.987-1.136-2.405-1.446-3.085-2.213-4.9 4.078-0.945 5.564-2.235 7.561-6.058-0.143-4.642 1.050-9.206 4.026-11.031 1.547 0.507 4.106 2.034 4.835 2.265-0.104 0.471 0.236 1.006 1.485 1.28 0.948 0.208 3.178 0.535 5.33-1.417 1.32 2.029 2.363 3.989 2.363 3.989s-4.119 4.090-8.994 2.806c-0.033 0.636-0.057 0.838-0.088 1.648z"></path>
<path fill="#000" d="M20.297 9.102c-2.492 0-4.574-2.037-4.574-4.551s2.082-4.551 4.574-4.551c2.489 0 4.605 2.038 4.605 4.551s-2.116 4.551-4.605 4.551z"></path>
</svg>
