<?xml version="1.0" encoding="utf-8"?>
<!-- Generated by IcoMoon.io -->
<!DOCTYPE svg PUBLIC "-//W3C//DTD SVG 1.1//EN" "http://www.w3.org/Graphics/SVG/1.1/DTD/svg11.dtd">
<svg version="1.1" xmlns="http://www.w3.org/2000/svg" xmlns:xlink="http://www.w3.org/1999/xlink" width="32" height="32" viewBox="0 0 32 32">
<path fill="#000" d="M15.996 1c8.288 0 15.004 6.715 15.004 14.996 0 8.288-6.716 15.004-15.004 15.004-8.281 0-14.996-6.716-14.996-15.004 0-8.281 6.715-14.996 14.996-14.996zM25.575 14.46c0.73 0 1.381-0.579 1.381-1.4-0.006-0.102-0.014-0.203-0.034-0.297-0.093-0.418-0.337-0.716-0.702-0.925-1.019-0.594-2.086-1.073-3.199-1.457-2.727-0.938-5.548-1.357-8.423-1.444-0.256-0.006-0.512-0.009-0.768-0.009-0.909 0-1.817 0.037-2.728 0.117-1.094 0.102-2.18 0.257-3.253 0.506-0.432 0.101-0.864 0.209-1.289 0.344-0.574 0.189-0.944 0.743-0.925 1.337 0.014 0.614 0.418 1.134 1.006 1.309 0.125 0.036 0.252 0.052 0.378 0.052 0.139 0 0.278-0.020 0.419-0.059 0.432-0.115 0.87-0.236 1.309-0.331 1.194-0.256 2.409-0.391 3.631-0.452 0.475-0.027 0.948-0.040 1.421-0.040 0.59 0 1.18 0.019 1.771 0.052 1.026 0.061 2.045 0.183 3.050 0.358 1.452 0.256 2.876 0.627 4.246 1.174 0.689 0.277 1.349 0.608 1.998 0.972 0.232 0.133 0.476 0.193 0.71 0.193zM24.689 18.514c0.284-0.472 0.216-1.221-0.391-1.593l-0.176-0.108c-1.168-0.689-2.396-1.236-3.685-1.647-2.263-0.724-4.573-1.076-6.935-1.076-0.302 0-0.604 0.006-0.908 0.017-1.242 0.048-2.47 0.189-3.685 0.459-0.493 0.108-0.985 0.236-1.471 0.385-0.473 0.142-0.776 0.573-0.789 1.066-0.014 0.472 0.277 0.919 0.722 1.101 0.139 0.056 0.283 0.081 0.428 0.081 0.134 0 0.269-0.022 0.402-0.061 1.714-0.506 3.47-0.723 5.184-0.729 1.377 0.006 2.667 0.128 3.948 0.371 1.668 0.31 3.273 0.817 4.785 1.585 0.331 0.169 0.655 0.358 0.972 0.541 0.196 0.11 0.406 0.164 0.611 0.164 0.392-0 0.766-0.197 0.988-0.556zM22.854 22.597c0.243-0.412 0.141-0.931-0.236-1.215-0.074-0.061-0.155-0.108-0.235-0.155-0.938-0.56-1.923-1.012-2.956-1.356-1.871-0.635-3.8-0.898-5.771-0.919-0.668 0.034-1.337 0.061-2.005 0.115-1.188 0.101-2.368 0.297-3.53 0.56-0.094 0.020-0.189 0.040-0.276 0.081-0.412 0.163-0.635 0.581-0.547 1.033 0.075 0.425 0.445 0.736 0.892 0.736 0.141-0.006 0.29-0.034 0.438-0.068 1.424-0.31 2.862-0.513 4.327-0.573 0.235-0.009 0.469-0.014 0.703-0.014 0.891 0 1.777 0.064 2.665 0.203 1.822 0.276 3.53 0.857 5.116 1.802 0.081 0.047 0.162 0.095 0.25 0.135 0.12 0.054 0.247 0.079 0.373 0.079 0.316 0 0.625-0.162 0.794-0.443z"></path>
</svg>
