<?xml version="1.0" encoding="utf-8"?>
<!-- Generated by IcoMoon.io -->
<!DOCTYPE svg PUBLIC "-//W3C//DTD SVG 1.1//EN" "http://www.w3.org/Graphics/SVG/1.1/DTD/svg11.dtd">
<svg version="1.1" xmlns="http://www.w3.org/2000/svg" xmlns:xlink="http://www.w3.org/1999/xlink" width="32" height="32" viewBox="0 0 32 32">
<path fill="#000" d="M28.234 14.857c1.106 0 2.012 0.417 2.714 1.248 0.702 0.835 1.052 1.849 1.052 3.038 0 1.142-0.308 2.119-0.926 2.928s-1.608 1.262-2.97 1.356v0.072h-12.711v-13.145c1.19-1.237 2.683-1.855 4.471-1.855s3.32 0.64 4.6 1.927c1.276 1.287 2.021 2.884 2.234 4.787 0.553-0.239 1.064-0.357 1.535-0.357z"></path>
<path fill="#000" d="M14.117 12c0.084-0.191 0.18-0.358 0.286-0.502 0.107-0.141 0.203-0.283 0.287-0.427v12.429h-1.979v-12.144c0.51 0.191 0.979 0.405 1.406 0.644z"></path>
<path fill="#000" d="M11.178 11.070c0.126 0 0.264 0.013 0.415 0.035 0.149 0.025 0.287 0.037 0.413 0.037v12.357h-1.339v-12.357c0.126-0.047 0.297-0.072 0.511-0.072z"></path>
<path fill="#000" d="M7.984 23.5v-11.359c0.424-0.333 0.873-0.571 1.342-0.713v12.072h-1.342z"></path>
<path fill="#000" d="M5.301 16.071l0.255 0.144c0.168-0.903 0.531-1.786 1.087-2.643v9.928h-1.342v-7.429z"></path>
<path fill="#000" d="M3.098 15.606c0.148-0.022 0.328-0.034 0.542-0.034 0.129 0 0.233 0.025 0.32 0.072v7.856h-0.32c-0.213 0-0.393-0.009-0.542-0.035-0.151-0.025-0.312-0.059-0.48-0.106v-7.646c0.168-0.048 0.328-0.082 0.48-0.107z"></path>
<path fill="#000" d="M0.351 17.891c0.233-0.498 0.541-0.938 0.926-1.318v5.998c-0.853-0.857-1.277-1.855-1.277-2.997 0-0.622 0.115-1.18 0.351-1.683z"></path>
</svg>
