<?xml version="1.0" encoding="utf-8"?>
<!-- Generated by IcoMoon.io -->
<!DOCTYPE svg PUBLIC "-//W3C//DTD SVG 1.1//EN" "http://www.w3.org/Graphics/SVG/1.1/DTD/svg11.dtd">
<svg version="1.1" xmlns="http://www.w3.org/2000/svg" xmlns:xlink="http://www.w3.org/1999/xlink" width="32" height="32" viewBox="0 0 32 32">
<path fill="#000" d="M16 1.276c-8.337 0-15.097 6.759-15.097 15.097 0 6.671 4.326 12.329 10.324 14.326 0.755 0.14 1.031-0.328 1.031-0.727 0-0.36-0.014-1.549-0.021-2.811-4.2 0.913-5.086-1.781-5.086-1.781-0.687-1.745-1.676-2.209-1.676-2.209-1.37-0.937 0.103-0.918 0.103-0.918 1.516 0.107 2.314 1.556 2.314 1.556 1.347 2.308 3.532 1.641 4.393 1.255 0.136-0.975 0.526-1.642 0.959-2.018-3.353-0.381-6.878-1.676-6.878-7.462 0-1.648 0.59-2.995 1.556-4.052-0.157-0.38-0.673-1.916 0.146-3.995 0 0 1.268-0.405 4.152 1.548 1.204-0.335 2.495-0.502 3.779-0.508 1.282 0.006 2.575 0.174 3.782 0.508 2.881-1.953 4.148-1.548 4.148-1.548 0.822 2.080 0.305 3.615 0.149 3.995 0.968 1.057 1.554 2.404 1.554 4.052 0 5.799-3.532 7.076-6.893 7.449 0.541 0.468 1.024 1.388 1.024 2.796 0 2.020-0.017 3.646-0.017 4.143 0 0.401 0.272 0.872 1.037 0.724 5.995-1.998 10.316-7.656 10.316-14.324-0.001-8.338-6.76-15.097-15.097-15.097z"></path>
</svg>
