<?xml version="1.0" encoding="utf-8"?>
<!-- Generated by IcoMoon.io -->
<!DOCTYPE svg PUBLIC "-//W3C//DTD SVG 1.1//EN" "http://www.w3.org/Graphics/SVG/1.1/DTD/svg11.dtd">
<svg version="1.1" xmlns="http://www.w3.org/2000/svg" xmlns:xlink="http://www.w3.org/1999/xlink" width="32" height="32" viewBox="0 0 32 32">
<path fill="#000" d="M9.589 6.38c1.994 0 3.769 0.527 5.327 1.568 1.552 1.043 2.729 2.499 3.522 4.35 0.046 0.094 0.168 0.366 0.363 0.823 0.198 0.459 0.437 1.026 0.718 1.701 0.287 0.681 0.601 1.43 0.953 2.258 0.349 0.831 0.695 1.636 1.046 2.422 0.428 0.947 0.901 1.707 1.413 2.28 0.482 0.547 1.282 0.854 2.445 0.9 0.136 0.008 0.267 0.014 0.397 0.014 0.922 0 1.682-0.267 2.303-0.794 0.715-0.612 1.052-1.31 1.055-2.138-0.003-0.843-0.271-1.376-0.805-1.696-0.576-0.34-1.364-0.686-2.354-1.032-1.889-0.616-3.311-1.294-4.271-2.057-0.987-0.775-1.472-1.948-1.472-3.463 0-1.474 0.477-2.683 1.426-3.585 0.948-0.905 2.241-1.354 3.852-1.354 2.047 0 3.644 0.959 4.71 2.828l0.082 0.145-2.3 1.188-0.083-0.107c-0.723-0.976-1.56-1.441-2.552-1.441-0.709 0-1.274 0.213-1.722 0.641-0.451 0.434-0.672 0.962-0.674 1.62 0.003 0.459 0.104 0.814 0.3 1.083 0.204 0.284 0.474 0.52 0.828 0.709 0.363 0.188 0.791 0.372 1.288 0.542 0.496 0.177 1.052 0.35 1.659 0.523l-0.042 0.153 0.052-0.15c1.667 0.575 2.912 1.234 3.723 1.999 0.828 0.78 1.228 1.965 1.225 3.52 0.003 1.653-0.624 3.032-1.855 4.081-1.23 1.055-2.788 1.578-4.649 1.578-1.684 0-3.034-0.401-4.029-1.217-0.987-0.8-1.784-1.915-2.405-3.333l-0.323-0.785-3.015-6.875c-0.467-1.191-1.262-2.145-2.393-2.87s-2.373-1.086-3.741-1.086c-0.942 0-1.812 0.179-2.621 0.542-0.813 0.363-1.528 0.842-2.147 1.441s-1.098 1.296-1.438 2.104c-0.338 0.811-0.511 1.688-0.511 2.624 0 0.899 0.172 1.75 0.511 2.558 0.34 0.812 0.819 1.521 1.438 2.141 0.619 0.619 1.333 1.099 2.144 1.438 0.811 0.343 1.682 0.51 2.623 0.51 1.282 0 2.44-0.318 3.483-0.959 1.047-0.637 1.864-1.505 2.465-2.623l0.159-0.292 1.341 3.208-0.059 0.079c-0.885 1.064-1.966 1.918-3.227 2.559-1.265 0.646-2.655 0.97-4.161 0.97-1.33 0-2.586-0.255-3.763-0.768-1.171-0.507-2.192-1.199-3.060-2.062-0.863-0.865-1.543-1.875-2.030-3.029-0.488-1.157-0.735-2.396-0.735-3.729 0-1.328 0.246-2.581 0.735-3.758 0.487-1.174 1.166-2.195 2.030-3.060 0.868-0.865 1.889-1.561 3.060-2.065 1.177-0.511 2.434-0.768 3.763-0.768z"></path>
</svg>
