<?xml version="1.0" encoding="utf-8"?>
<!-- Generated by IcoMoon.io -->
<!DOCTYPE svg PUBLIC "-//W3C//DTD SVG 1.1//EN" "http://www.w3.org/Graphics/SVG/1.1/DTD/svg11.dtd">
<svg version="1.1" xmlns="http://www.w3.org/2000/svg" xmlns:xlink="http://www.w3.org/1999/xlink" width="32" height="32" viewBox="0 0 32 32">
<path fill="#000" d="M26.081 27.965c-1.33 1.951-2.706 3.89-4.877 3.93-2.137 0.041-2.823-1.27-5.262-1.27-2.441 0-3.206 1.229-5.223 1.311-2.097 0.078-3.691-2.107-5.032-4.049-2.739-3.971-4.83-11.227-2.018-16.124 1.393-2.432 3.888-3.97 6.591-4.011 2.059-0.038 4.004 1.392 5.262 1.392 1.26 0 3.621-1.718 6.103-1.466 1.039 0.043 3.955 0.42 5.828 3.169-0.148 0.097-3.48 2.042-3.44 6.095 0.041 4.84 4.229 6.449 4.277 6.471-0.038 0.113-0.669 2.296-2.208 4.552z"></path>
<path fill="#000" d="M16.963 2.424c1.149-1.351 3.091-2.356 4.694-2.424 0.205 1.877-0.548 3.756-1.66 5.111-1.114 1.352-2.938 2.405-4.727 2.264-0.243-1.836 0.659-3.751 1.692-4.951z"></path>
</svg>
