<?xml version="1.0" encoding="utf-8"?>
<!-- Generated by IcoMoon.io -->
<!DOCTYPE svg PUBLIC "-//W3C//DTD SVG 1.1//EN" "http://www.w3.org/Graphics/SVG/1.1/DTD/svg11.dtd">
<svg version="1.1" xmlns="http://www.w3.org/2000/svg" xmlns:xlink="http://www.w3.org/1999/xlink" width="32" height="32" viewBox="0 0 32 32">
<path fill="#000" d="M32 30.087l-1.912 1.913-6.005-5.995c-2.548 2.12-5.822 3.397-9.388 3.397-8.105-0-14.695-6.594-14.695-14.702 0-8.109 6.59-14.7 14.695-14.7 8.104 0 14.694 6.591 14.694 14.7 0 3.568-1.276 6.841-3.395 9.391l6.005 5.996zM14.695 26.732c6.637 0 12.025-5.391 12.025-12.031 0-6.628-5.388-12.030-12.025-12.030-6.626 0-12.025 5.402-12.025 12.030 0 6.64 5.399 12.031 12.025 12.031z"></path>
</svg>
