<?xml version="1.0" encoding="utf-8"?>
<!-- Generated by IcoMoon.io -->
<!DOCTYPE svg PUBLIC "-//W3C//DTD SVG 1.1//EN" "http://www.w3.org/Graphics/SVG/1.1/DTD/svg11.dtd">
<svg version="1.1" xmlns="http://www.w3.org/2000/svg" xmlns:xlink="http://www.w3.org/1999/xlink" width="32" height="32" viewBox="0 0 32 32">
<path fill="#000" d="M18.927 8.939c-0.774 0.061-1.668 0.12-2.562 0.24-1.37 0.177-2.739 0.418-3.871 0.953-2.204 0.896-3.693 2.805-3.693 5.609 0 3.521 2.264 5.309 5.122 5.309 0.954 0 1.729-0.117 2.442-0.297 1.133-0.358 2.085-1.014 3.217-2.208 0.655 0.896 0.833 1.314 1.966 2.267 0.298 0.121 0.596 0.121 0.833-0.059 0.715-0.597 1.965-1.669 2.622-2.267 0.297-0.241 0.236-0.597 0.059-0.896-0.656-0.835-1.31-1.552-1.31-3.161v-5.37c0-2.269 0.177-4.356-1.489-5.906-1.37-1.255-3.514-1.731-5.181-1.731-0.239 0-0.476 0-0.716 0-3.037 0.179-6.253 1.49-6.969 5.25-0.117 0.476 0.24 0.656 0.479 0.717l3.335 0.418c0.358-0.061 0.536-0.359 0.594-0.659 0.3-1.311 1.371-1.967 2.562-2.087 0.061 0 0.12 0 0.24 0 0.712 0 1.487 0.3 1.905 0.894 0.474 0.717 0.417 1.673 0.417 2.507v0.477zM18.927 12.401c0 1.373 0.058 2.446-0.655 3.637-0.417 0.834-1.131 1.372-1.907 1.552-0.119 0-0.296 0.061-0.476 0.061-1.309 0-2.086-1.014-2.086-2.507 0-1.908 1.133-2.805 2.562-3.222 0.775-0.179 1.669-0.238 2.562-0.238v0.717z"></path>
<path fill="#000" d="M29.897 29.151c1.456-1.232 2.071-3.468 2.103-4.636v-0.194c0-0.261-0.064-0.453-0.128-0.551-0.292-0.356-2.43-0.682-4.272-0.13-0.517 0.164-0.972 0.39-1.392 0.681-0.323 0.228-0.259 0.517 0.065 0.486 0.355-0.066 0.81-0.097 1.327-0.164 1.133-0.095 2.46-0.128 2.782 0.293 0.452 0.55-0.517 2.95-0.94 3.987-0.128 0.325 0.163 0.455 0.454 0.227z"></path>
<path fill="#000" d="M0.161 24.515c4.173 3.793 9.674 6.063 15.823 6.063 3.818 0 8.218-1.071 11.616-3.112 0.454-0.262 0.905-0.553 1.326-0.876 0.582-0.42 0.065-1.070-0.517-0.812-0.259 0.097-0.55 0.229-0.808 0.325-3.723 1.46-7.636 2.141-11.261 2.141-5.761 0-11.325-1.59-15.823-4.215-0.421-0.226-0.713 0.194-0.356 0.486z"></path>
</svg>
