<?xml version="1.0" encoding="utf-8"?>
<!-- Generated by IcoMoon.io -->
<!DOCTYPE svg PUBLIC "-//W3C//DTD SVG 1.1//EN" "http://www.w3.org/Graphics/SVG/1.1/DTD/svg11.dtd">
<svg version="1.1" xmlns="http://www.w3.org/2000/svg" xmlns:xlink="http://www.w3.org/1999/xlink" width="32" height="32" viewBox="0 0 32 32">
<path fill="#000" d="M22.13 2.751c-0.907-0.018-1.754 0.175-2.535 0.523-2.853 1.295-4.596 4.633-3.842 7.674-2.728-0.111-5.253-0.784-7.577-2.020-2.327-1.241-4.309-2.892-5.942-4.961-1.126 2.188-1.162 4.386-0.11 6.594 0.506 0.96 1.233 1.736 2.18 2.327-1.070-0.024-2.088-0.264-3.053-0.72 0 1.624 0.498 3.037 1.498 4.238s2.263 1.967 3.789 2.297c-0.963 0.264-1.944 0.282-2.943 0.056 0.4 1.331 1.152 2.429 2.261 3.295 1.108 0.87 2.391 1.323 3.845 1.361-2.706 2.225-6.253 3.141-9.703 2.769 5.275 3.398 12.373 4.155 18.070 1.329 2.307-1.145 4.254-2.631 5.835-4.461 3.256-3.773 4.93-8.694 4.824-13.656 1.307-1.033 2.399-2.195 3.271-3.489-1.197 0.55-2.451 0.9-3.761 1.050 1.343-0.884 2.307-2.104 2.889-3.656-1.314 0.748-2.714 1.265-4.2 1.551 0 0-1.61-2.042-4.797-2.104z"></path>
</svg>
