<?xml version="1.0" encoding="utf-8"?>
<!-- Generated by IcoMoon.io -->
<!DOCTYPE svg PUBLIC "-//W3C//DTD SVG 1.1//EN" "http://www.w3.org/Graphics/SVG/1.1/DTD/svg11.dtd">
<svg version="1.1" xmlns="http://www.w3.org/2000/svg" xmlns:xlink="http://www.w3.org/1999/xlink" width="32" height="32" viewBox="0 0 32 32">
<path fill="#000" d="M15.999 0c-8.836 0.001-15.999 7.164-15.999 16.001 0 8.835 7.163 15.999 15.999 15.999s16-7.164 16.001-15.999c-0.001-8.837-7.164-16-16.001-16.001zM25.803 8.296c1.561 1.982 2.538 4.437 2.662 7.117-1.806-0.383-3.513-0.57-5.104-0.57v-0h-0.012c-1.281 0-2.483 0.116-3.616 0.317-0.276-0.675-0.555-1.323-0.836-1.944 2.523-1.107 4.945-2.683 6.906-4.921zM15.999 3.518c2.945 0 5.646 1.029 7.784 2.743-1.637 1.959-3.797 3.378-6.13 4.38-1.639-3.171-3.224-5.439-4.307-6.825 0.857-0.191 1.742-0.298 2.653-0.298zM10.486 4.819c0.867 1.024 2.601 3.274 4.454 6.789-3.768 1.122-7.563 1.385-9.858 1.384-0.066 0-0.13 0-0.194-0.001h-0.002c-0.386 0-0.719-0.006-0.997-0.015 0.896-3.584 3.351-6.552 6.597-8.158zM3.517 16.001c0-0.059 0.002-0.118 0.006-0.18 0.356 0.013 0.814 0.024 1.364 0.024h0.003c2.509-0.016 6.89-0.226 11.33-1.628 0.242 0.529 0.482 1.080 0.718 1.652-2.965 0.991-5.3 2.572-7.027 4.145-1.662 1.514-2.786 3.014-3.442 4.016-1.837-2.174-2.95-4.97-2.951-8.030zM15.999 28.484c-2.778 0-5.338-0.919-7.415-2.46 0.441-0.727 1.388-2.123 2.895-3.566 1.551-1.486 3.692-3.016 6.487-3.926 0.95 2.663 1.81 5.707 2.465 9.135-1.38 0.525-2.87 0.817-4.431 0.817zM23.064 26.267c-0.633-3.099-1.43-5.894-2.304-8.388 0.811-0.116 1.662-0.182 2.56-0.182h0.037c1.489 0 3.125 0.185 4.899 0.588-0.614 3.301-2.526 6.143-5.192 7.982z"></path>
</svg>
