<?xml version="1.0" encoding="utf-8"?>
<!-- Generated by IcoMoon.io -->
<!DOCTYPE svg PUBLIC "-//W3C//DTD SVG 1.1//EN" "http://www.w3.org/Graphics/SVG/1.1/DTD/svg11.dtd">
<svg version="1.1" xmlns="http://www.w3.org/2000/svg" xmlns:xlink="http://www.w3.org/1999/xlink" width="32" height="32" viewBox="0 0 32 32">
<path fill="#000" d="M15.995 30.666l-4.635-2.707c-2.336-1.414-6.263-3.79-8.961-7.891-2.484-3.773-3.081-8.359-1.597-12.267 1.326-3.492 4.044-5.874 7.272-6.374 0.423-0.063 0.849-0.095 1.271-0.095 2.978 0 5.219 1.632 6.651 3.137 1.434-1.504 3.678-3.137 6.658-3.137 0.424 0 0.852 0.032 1.268 0.095 3.232 0.5 5.949 2.883 7.273 6.374 1.486 3.909 0.889 8.496-1.595 12.267-2.704 4.105-6.626 6.478-8.97 7.896l-1.096 0.68-3.539 2.022zM9.346 3.981c-0.279 0-0.566 0.021-0.866 0.065-2.261 0.349-4.2 2.103-5.182 4.69-1.185 3.121-0.688 6.815 1.333 9.885 2.37 3.599 5.974 5.781 8.126 7.083l1.123 0.693 2.118 1.213 3.232-1.901c2.164-1.31 5.766-3.485 8.138-7.088 2.021-3.068 2.52-6.764 1.333-9.885-0.982-2.586-2.919-4.338-5.187-4.69-3-0.455-5.193 1.583-6.443 3.271l-1.074 1.451-1.074-1.451c-1.126-1.521-3.009-3.336-5.577-3.336z"></path>
</svg>
