<?xml version="1.0" encoding="utf-8"?>
<!-- Generated by IcoMoon.io -->
<!DOCTYPE svg PUBLIC "-//W3C//DTD SVG 1.1//EN" "http://www.w3.org/Graphics/SVG/1.1/DTD/svg11.dtd">
<svg version="1.1" xmlns="http://www.w3.org/2000/svg" xmlns:xlink="http://www.w3.org/1999/xlink" width="32" height="32" viewBox="0 0 32 32">
<path fill="#000" d="M28.225 21.426c0.556-1.249 0.926-2.598 1.076-4.012h2.698c-0.166 1.898-0.666 3.702-1.436 5.354l-2.337-1.343z"></path>
<path fill="#000" d="M23.87 26.81c1.122-0.822 2.112-1.811 2.933-2.933l2.334 1.348c-1.070 1.52-2.397 2.848-3.919 3.918l-1.349-2.332z"></path>
<path fill="#000" d="M17.417 29.299c1.413-0.148 2.76-0.52 4.010-1.076l1.341 2.338c-1.651 0.771-3.456 1.268-5.351 1.435v-2.697z"></path>
<path fill="#000" d="M10.573 3.763l-1.347-2.328c1.652-0.771 3.458-1.27 5.359-1.435v2.685c-1.414 0.15-2.763 0.519-4.013 1.078z"></path>
<path fill="#000" d="M9.221 30.56l1.351-2.333c1.248 0.556 2.599 0.926 4.013 1.075v2.698c-1.901-0.167-3.71-0.667-5.364-1.44z"></path>
<path fill="#000" d="M5.191 23.879c0.819 1.121 1.809 2.109 2.931 2.928l-1.344 2.337c-1.522-1.070-2.852-2.401-3.923-3.923l2.336-1.343z"></path>
<path fill="#000" d="M2.688 17.414c0.15 1.414 0.521 2.762 1.078 4.011l-2.331 1.338c-0.769-1.65-1.266-3.453-1.433-5.349h2.685z"></path>
<path fill="#000" d="M3.764 10.57c-0.557 1.25-0.928 2.6-1.077 4.013h-2.688c0.167-1.899 0.664-3.704 1.438-5.36l2.327 1.347z"></path>
<path fill="#000" d="M8.12 5.185c-1.122 0.82-2.113 1.81-2.934 2.932l-2.332-1.341c1.073-1.522 2.401-2.852 3.925-3.923l1.341 2.332z"></path>
<path fill="#000" d="M22.763 1.435l-1.338 2.328c-1.247-0.556-2.595-0.927-4.008-1.075v-2.688c1.896 0.167 3.695 0.664 5.346 1.435z"></path>
<path fill="#000" d="M26.807 8.12c-0.82-1.122-1.81-2.116-2.935-2.938l1.346-2.325c1.522 1.069 2.849 2.397 3.922 3.917l-2.334 1.346z"></path>
<path fill="#000" d="M29.302 14.583c-0.148-1.413-0.521-2.763-1.075-4.013l2.333-1.349c0.773 1.654 1.273 3.461 1.44 5.362h-2.698z"></path>
<path fill="#000" d="M17.282 7.035v7.684h7.684v2.561h-10.246v-10.245z"></path>
</svg>
