<?xml version="1.0" encoding="utf-8"?>
<!-- Generated by IcoMoon.io -->
<!DOCTYPE svg PUBLIC "-//W3C//DTD SVG 1.1//EN" "http://www.w3.org/Graphics/SVG/1.1/DTD/svg11.dtd">
<svg version="1.1" xmlns="http://www.w3.org/2000/svg" xmlns:xlink="http://www.w3.org/1999/xlink" width="32" height="32" viewBox="0 0 32 32">
<path fill="#000" d="M17.62 10.896c0-0.444-0.155-0.836-0.466-1.176s-0.688-0.51-1.131-0.51c-0.474 0-0.866 0.17-1.176 0.51s-0.466 0.732-0.466 1.176v10.209c0 1.006-0.193 1.93-0.577 2.774s-0.903 1.575-1.553 2.197c-0.651 0.622-1.414 1.11-2.286 1.465s-1.797 0.532-2.774 0.532c-1.006 0-1.946-0.184-2.818-0.554s-1.635-0.88-2.286-1.532c-0.651-0.651-1.161-1.413-1.531-2.286-0.37-0.872-0.555-1.812-0.555-2.819v-4.393h5.503v4.393c0 0.474 0.156 0.881 0.467 1.221s0.717 0.511 1.22 0.511c0.473 0 0.866-0.17 1.176-0.511s0.466-0.747 0.466-1.221v-9.986c0-0.976 0.185-1.901 0.555-2.774 0.37-0.872 0.88-1.634 1.531-2.286 0.651-0.65 1.413-1.168 2.286-1.553s1.812-0.577 2.818-0.577c0.976 0 1.901 0.193 2.774 0.577s1.634 0.903 2.286 1.553c0.651 0.652 1.161 1.413 1.532 2.286 0.369 0.873 0.554 1.797 0.554 2.774v1.997l-3.285 1.021-2.264-1.021v-1.997zM32 21.104c0 1.006-0.185 1.945-0.555 2.818-0.371 0.873-0.881 1.635-1.531 2.286-0.651 0.651-1.413 1.161-2.286 1.531s-1.813 0.555-2.818 0.555c-0.976 0-1.901-0.185-2.774-0.555s-1.634-0.88-2.285-1.531c-0.651-0.651-1.169-1.413-1.553-2.286-0.385-0.873-0.578-1.813-0.578-2.818v-4.527l2.264 1.020 3.285-1.020v4.527c0 0.503 0.155 0.909 0.466 1.22s0.703 0.466 1.176 0.466c0.503 0 0.91-0.155 1.221-0.466s0.466-0.717 0.466-1.22v-4.394h5.503v4.394z"></path>
</svg>
