<?xml version="1.0" encoding="utf-8"?>
<!-- Generated by IcoMoon.io -->
<!DOCTYPE svg PUBLIC "-//W3C//DTD SVG 1.1//EN" "http://www.w3.org/Graphics/SVG/1.1/DTD/svg11.dtd">
<svg version="1.1" xmlns="http://www.w3.org/2000/svg" xmlns:xlink="http://www.w3.org/1999/xlink" width="32" height="32" viewBox="0 0 32 32">
<path fill="#000" d="M10.908 30c0.711-1.203 1.299-2.627 1.765-4.27 0.465-1.642 0.891-3.258 1.274-4.846 0.096-0.057 0.182-0.086 0.258-0.086 0.141 0 0.246 0.098 0.318 0.291 0.107 0.303 0.244 0.508 0.41 0.617 0.656 0.492 1.408 0.808 2.256 0.943 0.426 0.068 0.852 0.102 1.285 0.102 0.43 0 0.863-0.033 1.301-0.102 0.875-0.135 1.711-0.383 2.508-0.74 0.793-0.352 1.433-0.752 1.93-1.188 1.477-1.262 2.547-2.998 3.203-5.217 0.654-2.217 0.875-4.338 0.654-6.363-0.108-1.151-0.451-2.231-1.026-3.244-0.574-1.012-1.287-1.93-2.133-2.752-0.852-0.82-1.836-1.49-2.961-2.010-1.119-0.519-2.283-0.865-3.486-1.027-0.639-0.072-1.267-0.109-1.885-0.109-1.242 0-2.449 0.147-3.621 0.438-1.75 0.439-3.297 1.164-4.636 2.176-1.344 1.014-2.422 2.26-3.242 3.736-0.82 1.479-1.232 3.149-1.232 5.008 0 1.756 0.314 3.203 0.943 4.354 0.627 1.149 1.711 2.027 3.242 2.629 0.549-0.547 0.836-1.041 0.865-1.48 0.025-0.436-0.072-0.887-0.287-1.354-0.221-0.465-0.469-0.932-0.738-1.395-0.277-0.465-0.439-0.998-0.496-1.604-0.164-1.531 0.125-3.024 0.863-4.474 0.738-1.449 1.766-2.627 3.080-3.531 1.314-0.901 2.791-1.438 4.435-1.599 0.235-0.023 0.471-0.037 0.707-0.037 1.404 0 2.813 0.424 4.221 1.268 1.146 0.656 1.967 1.791 2.461 3.41 0.49 1.613 0.656 3.271 0.49 4.965-0.162 1.699-0.641 3.246-1.433 4.641-0.797 1.398-1.877 2.233-3.242 2.504-0.27 0.051-0.537 0.074-0.801 0.074-0.326 0-0.648-0.039-0.969-0.113-0.572-0.139-0.998-0.344-1.274-0.617-0.654-0.656-0.928-1.395-0.82-2.215 0.113-0.822 0.328-1.697 0.66-2.631 0.328-0.93 0.627-1.873 0.9-2.832 0.277-0.959 0.221-1.902-0.162-2.832-0.328-0.768-0.781-1.217-1.355-1.356-0.191-0.045-0.385-0.068-0.578-0.068-0.391 0-0.785 0.092-1.188 0.276-0.605 0.274-1.136 0.709-1.601 1.311-0.465 0.605-0.752 1.262-0.863 1.971-0.11 0.768-0.053 1.492 0.164 2.176 0.219 0.685 0.33 1.355 0.33 2.014 0 0.77-0.096 1.59-0.287 2.461-0.195 0.879-0.426 1.766-0.699 2.67s-0.547 1.795-0.82 2.67c-0.275 0.877-0.467 1.697-0.574 2.465-0.113 0.602-0.195 1.424-0.25 2.461-0.053 1.041 0 1.863 0.168 2.465l0.547 2 1.421-2.001z"></path>
</svg>
