<?xml version="1.0" encoding="utf-8"?>
<!-- Generated by IcoMoon.io -->
<!DOCTYPE svg PUBLIC "-//W3C//DTD SVG 1.1//EN" "http://www.w3.org/Graphics/SVG/1.1/DTD/svg11.dtd">
<svg version="1.1" xmlns="http://www.w3.org/2000/svg" xmlns:xlink="http://www.w3.org/1999/xlink" width="32" height="32" viewBox="0 0 32 32">
<path fill="#000" d="M29.611 18.414c0.927 1.389 1.389 2.946 1.389 4.668 0 1.158-0.216 2.235-0.645 3.227s-1.011 1.858-1.737 2.583c-0.729 0.729-1.599 1.308-2.607 1.74-1.011 0.429-2.079 0.645-3.204 0.645-1.626 0-3.081-0.414-4.37-1.242-0.865 0.198-1.707 0.297-2.535 0.297-1.887 0-3.67-0.363-5.34-1.092-1.671-0.726-3.129-1.713-4.371-2.955s-2.226-2.709-2.955-4.395c-0.729-1.689-1.095-3.477-1.095-5.364 0-0.366 0.010-0.723 0.027-1.071 0.015-0.345 0.075-0.703 0.174-1.065-0.465-0.63-0.804-1.326-1.020-2.088-0.213-0.762-0.321-1.557-0.321-2.385 0-1.125 0.216-2.193 0.645-3.204 0.429-1.008 1.011-1.878 1.74-2.607 0.726-0.729 1.587-1.308 2.583-1.74 0.993-0.429 2.070-0.644 3.228-0.644 1.722 0 3.21 0.447 4.47 1.344 0.363-0.102 0.738-0.159 1.115-0.174 0.381-0.018 0.754-0.027 1.12-0.027 1.886 0 3.666 0.357 5.339 1.068 1.671 0.714 3.129 1.689 4.371 2.931s2.226 2.691 2.955 4.347 1.092 3.426 1.092 5.316c0 0.33 0 0.651 0 0.969 0 0.312-0.018 0.618-0.048 0.918zM24.196 21.693c0.231-0.898 0.15-1.806-0.249-2.733-0.363-0.927-0.894-1.665-1.587-2.211-0.696-0.546-1.485-0.984-2.361-1.317-0.876-0.33-1.812-0.597-2.808-0.795-0.993-0.198-1.986-0.429-2.979-0.693-0.993-0.234-1.638-0.597-1.938-1.095-0.297-0.495-0.33-0.984-0.099-1.463s0.663-0.903 1.293-1.266c0.627-0.366 1.356-0.546 2.184-0.546 0.795 0.033 1.491 0.222 2.089 0.57 0.594 0.348 1.131 0.729 1.614 1.143 0.48 0.414 0.909 0.777 1.29 1.092 0.345 0.285 0.67 0.428 0.974 0.428 0.032 0 0.064-0.002 0.095-0.005 0.363-0.034 0.695-0.192 0.993-0.474 0.297-0.279 0.498-0.621 0.597-1.017 0.099-0.399 0.075-0.837-0.075-1.317-0.146-0.48-0.503-0.951-1.065-1.416-0.963-0.861-2.088-1.488-3.378-1.887-0.914-0.28-1.977-0.42-3.187-0.42-0.502 0-1.030 0.024-1.583 0.073-0.729 0.066-1.44 0.24-2.136 0.522s-1.323 0.663-1.887 1.143c-0.563 0.479-1.026 1.074-1.392 1.788-0.366 0.71-0.578 1.533-0.645 2.457-0.099 0.93 0.075 1.74 0.522 2.436s1.041 1.29 1.788 1.788c0.744 0.498 1.581 0.894 2.508 1.194 0.927 0.297 1.821 0.513 2.682 0.645 0.597 0.099 1.224 0.246 1.887 0.447 0.663 0.198 1.209 0.444 1.638 0.744 0.432 0.297 0.704 0.663 0.822 1.092 0.114 0.432-0.075 0.927-0.573 1.491-0.462 0.531-1.011 0.87-1.638 1.017-0.438 0.104-0.866 0.156-1.287 0.156-0.186 0-0.369-0.010-0.552-0.030-0.594-0.066-1.149-0.198-1.662-0.399-0.516-0.198-0.888-0.363-1.119-0.495s-0.465-0.339-0.696-0.621c-0.231-0.282-0.495-0.564-0.795-0.846-0.297-0.279-0.612-0.528-0.943-0.744-0.286-0.188-0.613-0.28-0.973-0.28-0.056 0-0.112 0.002-0.17 0.006-0.464 0.033-0.843 0.183-1.143 0.447-0.297 0.264-0.489 0.597-0.57 0.993-0.084 0.399-0.033 0.843 0.147 1.341 0.183 0.498 0.522 0.993 1.020 1.491 0.465 0.462 0.951 0.861 1.467 1.191 0.51 0.333 1.092 0.615 1.737 0.843 0.645 0.234 1.383 0.393 2.211 0.474 0.461 0.045 0.967 0.069 1.513 0.069 0.43 0 0.885-0.015 1.366-0.046 1.125-0.033 2.184-0.282 3.18-0.744 0.993-0.465 1.827-1.059 2.508-1.788 0.678-0.729 1.133-1.542 1.365-2.433z"></path>
</svg>
