<?xml version="1.0" encoding="utf-8"?>
<!-- Generated by IcoMoon.io -->
<!DOCTYPE svg PUBLIC "-//W3C//DTD SVG 1.1//EN" "http://www.w3.org/Graphics/SVG/1.1/DTD/svg11.dtd">
<svg version="1.1" xmlns="http://www.w3.org/2000/svg" xmlns:xlink="http://www.w3.org/1999/xlink" width="32" height="32" viewBox="0 0 32 32">
<path fill="#000" d="M8.538 11.943c0.19 2.72-1.284 5.039-3.294 5.18s-3.793-1.949-3.983-4.67c-0.19-2.72 1.284-5.040 3.294-5.181s3.793 1.95 3.983 4.671zM22.378 0.666c-1.953-0.498-4.079 1.241-4.752 3.883s0.364 5.188 2.317 5.686c1.952 0.498 4.080-1.24 4.752-3.883 0.874-3.439-1.849-5.567-2.317-5.686zM26.956 9.573c-2.054 0.030-3.683 1.984-3.638 5.009s1.744 4.404 3.799 4.374c2.053-0.031 3.683-1.459 3.639-4.485-0.059-3.938-3.307-4.905-3.799-4.898zM12.077 0c-1.954 0-3.538 2.19-3.538 4.891s1.584 4.89 3.538 4.89 3.539-2.189 3.539-4.89-1.584-4.891-3.538-4.891zM11.625 15.19c-1.129 1.621-2.409 3.204-4.893 5.277s-3.538 3.506-3.538 5.616 1.204 5.616 4.63 5.616c3.425 0 5.082-0.754 7.792-0.754s4.517 1.056 7.942 1.056c3.425 0 4.856-3.242 4.856-5.352s-0.595-3.305-3.338-5.714c-1.759-1.545-3.249-2.803-5.583-6.045-1.154-1.603-2.485-1.809-3.877-1.809-1.393-0-2.861 0.49-3.991 2.111z"></path>
</svg>
