<?xml version="1.0" encoding="utf-8"?>
<!-- Generated by IcoMoon.io -->
<!DOCTYPE svg PUBLIC "-//W3C//DTD SVG 1.1//EN" "http://www.w3.org/Graphics/SVG/1.1/DTD/svg11.dtd">
<svg version="1.1" xmlns="http://www.w3.org/2000/svg" xmlns:xlink="http://www.w3.org/1999/xlink" width="32" height="32" viewBox="0 0 32 32">
<path fill="#000" d="M10.394 13.942v4.117c0 0 3.993-0.005 5.619-0.005-0.88 2.668-2.249 4.122-5.619 4.122-3.41 0-6.072-2.765-6.072-6.175s2.662-6.175 6.072-6.175c1.803 0 2.967 0.634 4.036 1.517 0.855-0.855 0.784-0.977 2.958-3.031-1.846-1.681-4.3-2.705-6.994-2.705-5.74 0-10.394 4.654-10.394 10.394s4.654 10.394 10.394 10.394c8.581 0 10.678-7.471 9.983-12.452-2.032 0-9.983 0-9.983 0zM28.354 14.143v-3.646h-2.604v3.646h-3.75v2.604h3.75v3.75h2.604v-3.75h3.646v-2.604h-3.646z"></path>
</svg>
