<?xml version="1.0" encoding="utf-8"?>
<!-- Generated by IcoMoon.io -->
<!DOCTYPE svg PUBLIC "-//W3C//DTD SVG 1.1//EN" "http://www.w3.org/Graphics/SVG/1.1/DTD/svg11.dtd">
<svg version="1.1" xmlns="http://www.w3.org/2000/svg" xmlns:xlink="http://www.w3.org/1999/xlink" width="32" height="32" viewBox="0 0 32 32">
<path fill="#000" d="M31.774 10.445c0.113 1.839 0.226 3.716 0.226 5.556s-0.112 3.716-0.226 5.556c-0.188 2.604-2.179 4.138-4.62 4.252-3.718 0.191-7.437 0.191-11.155 0.191s-7.475 0-11.155-0.191c-2.441-0.114-4.432-1.648-4.619-4.252-0.113-1.84-0.225-3.718-0.225-5.556s0.112-3.716 0.225-5.556c0.187-2.606 2.178-4.139 4.619-4.254 3.681-0.191 7.436-0.191 11.155-0.191 3.718 0 7.474 0 11.154 0.192 2.441 0.114 4.432 1.647 4.62 4.253zM12.266 20.349l8.534-4.349-8.534-4.347v8.696z"></path>
</svg>
