<?xml version="1.0" encoding="utf-8"?>
<!-- Generated by IcoMoon.io -->
<!DOCTYPE svg PUBLIC "-//W3C//DTD SVG 1.1//EN" "http://www.w3.org/Graphics/SVG/1.1/DTD/svg11.dtd">
<svg version="1.1" xmlns="http://www.w3.org/2000/svg" xmlns:xlink="http://www.w3.org/1999/xlink" width="32" height="32" viewBox="0 0 32 32">
<path fill="#000" d="M3.281 18.078h1.506v-4.168h-1.506v4.168zM0 10.998h4.787v-4.248h3.28v14.252h-8.066v-10.004zM12.854 9.661h-3.28v-2.911h3.28v2.911zM12.854 21.002h-3.28v-10.004h3.28v10.004zM17.64 18.078h1.506v-4.168h-1.506v4.168zM14.36 25.25v-2.912h4.787v-1.337h-4.787v-10.004h8.067v14.252h-8.067zM27.213 18.078h1.506v-4.168h-1.506v4.168zM23.933 25.25v-2.912h4.786v-1.337h-4.786v-10.004h8.067v14.252h-8.067z"></path>
</svg>
