<?xml version="1.0" encoding="utf-8"?>
<!-- Generated by IcoMoon.io -->
<!DOCTYPE svg PUBLIC "-//W3C//DTD SVG 1.1//EN" "http://www.w3.org/Graphics/SVG/1.1/DTD/svg11.dtd">
<svg version="1.1" xmlns="http://www.w3.org/2000/svg" xmlns:xlink="http://www.w3.org/1999/xlink" width="32" height="32" viewBox="0 0 32 32">
<path fill="#000" d="M31 31l-8.063-3.816c-2.29 1.484-4.95 2.273-7.711 2.273-7.848 0-14.226-6.387-14.226-14.229 0-7.846 6.379-14.229 14.226-14.229 7.844 0 14.225 6.383 14.225 14.229 0 2.759-0.784 5.416-2.272 7.714l3.82 8.057zM15.226 4.793c-5.752 0-10.433 4.683-10.433 10.435s4.682 10.432 10.433 10.432c2.129 0 4.172-0.633 5.908-1.832l1.465-1.003 0.425 0.199-0.203-0.422 1-1.462c1.204-1.742 1.84-3.785 1.84-5.912 0-5.752-4.684-10.435-10.434-10.435z"></path>
</svg>
