<?xml version="1.0" encoding="utf-8"?>
<!-- Generated by IcoMoon.io -->
<!DOCTYPE svg PUBLIC "-//W3C//DTD SVG 1.1//EN" "http://www.w3.org/Graphics/SVG/1.1/DTD/svg11.dtd">
<svg version="1.1" xmlns="http://www.w3.org/2000/svg" xmlns:xlink="http://www.w3.org/1999/xlink" width="32" height="32" viewBox="0 0 32 32">
<path fill="#000" d="M9.417 2.395c1.382-0.236 2.416 0.263 3.101 1.498 2.423 3.976 2.070 9.747 3.577 14.165 0.377 1.106 0.792 1.659 1.245 1.659 0.452 0 1.064-0.514 1.834-1.543 1.401-1.875 4.63-6.012 2.761-8.5-1.202-1.069-2.492-1.083-3.871-0.044 0.744-4.556 6.199-9.306 10.889-7.049 9.998 4.845-7.384 23.678-12.2 26.763-2.628 1.781-5.435-0.364-6.565-2.811-1.72-3.8-2.603-8.072-3.848-12.046-0.332-1.059-0.634-1.964-0.905-2.717-0.899-2.489-2.428-1.674-4.165-0.346l-1.268-1.751c1.025-1.197 2.082-2.303 3.169-3.316 1.76-1.618 3.851-3.458 6.248-3.962 0.723-0.153-1.027 0.216 0 0 0.723-0.153-1.027 0.216 0 0 0.723-0.153-1.027 0.216 0 0 0.723-0.153-1.027 0.216 0 0 0.723-0.153-1.027 0.216 0 0 0.723-0.153-1.027 0.216 0 0 0.723-0.153-1.027 0.216 0 0 0.723-0.153-1.027 0.216 0 0 0.723-0.153-1.027 0.216 0 0 0.723-0.153-1.027 0.216 0 0 0.723-0.153-1.027 0.216 0 0z"></path>
</svg>
