<?xml version="1.0" encoding="utf-8"?>
<!-- Generated by IcoMoon.io -->
<!DOCTYPE svg PUBLIC "-//W3C//DTD SVG 1.1//EN" "http://www.w3.org/Graphics/SVG/1.1/DTD/svg11.dtd">
<svg version="1.1" xmlns="http://www.w3.org/2000/svg" xmlns:xlink="http://www.w3.org/1999/xlink" width="32" height="32" viewBox="0 0 32 32">
<path fill="#000" d="M20.706 16.066c1.104 0 2 0.895 2 2.001 0 1.103-0.895 1.999-2 1.999s-2-0.895-2-1.999c0-1.106 0.896-2.001 2-2.001z"></path>
<path fill="#000" d="M13.302 18.067c0 1.103-0.896 1.999-1.999 1.999-1.106 0-2.002-0.895-2.002-1.999 0-1.106 0.896-2.001 2.002-2.001 1.104 0 1.999 0.895 1.999 2.001z"></path>
<path fill="#000" d="M18.949 5.169l-1.561 4.936c3.085 0.207 5.963 1.070 8.252 2.487 0.668-0.518 1.505-0.825 2.413-0.825 2.176 0 3.947 1.771 3.947 3.947 0 1.368-0.7 2.575-1.759 3.283 0.029 0.255 0.043 0.511 0.043 0.77 0 2.676-1.55 5.161-4.363 6.997-2.681 1.75-6.227 2.713-9.985 2.713-3.756 0-7.302-0.964-9.985-2.713-2.813-1.836-4.362-4.321-4.362-6.997 0-0.286 0.018-0.57 0.053-0.852-0.994-0.717-1.641-1.884-1.641-3.201 0-2.176 1.77-3.947 3.946-3.947 0.882 0 1.697 0.29 2.355 0.782 2.482-1.515 5.641-2.386 9.002-2.483l2.019-6.383c0.306-0.557 0.701-0.781 1.183-0.671 2.963 0.697 4.437 1.044 5.169 1.217 0.57-1.015 1.657-1.703 2.901-1.703 1.831 0 3.322 1.49 3.322 3.323s-1.491 3.323-3.322 3.323c-1.718 0-3.137-1.31-3.307-2.984l-4.319-1.016zM24.828 25.088c2.229-1.454 3.455-3.345 3.455-5.322s-1.227-3.868-3.455-5.322c-2.361-1.54-5.518-2.389-8.893-2.389-3.373 0-6.53 0.849-8.891 2.389-2.229 1.454-3.456 3.345-3.456 5.322s1.227 3.867 3.456 5.322c2.36 1.54 5.518 2.389 8.891 2.389s6.532-0.849 8.893-2.389zM29.637 16.843c0.228-0.319 0.363-0.709 0.363-1.13 0-1.074-0.874-1.947-1.948-1.947-0.234 0-0.459 0.041-0.667 0.118 1.005 0.893 1.763 1.893 2.252 2.96zM2 15.713c0 0.373 0.105 0.722 0.288 1.018 0.495-1.037 1.247-2.008 2.234-2.879-0.182-0.056-0.375-0.086-0.575-0.086-1.074 0-1.947 0.874-1.947 1.948zM26.576 4.523c-0.73 0-1.324 0.594-1.324 1.323s0.594 1.323 1.324 1.323c0.729 0 1.322-0.593 1.322-1.323 0-0.729-0.593-1.323-1.322-1.323z"></path>
<path fill="#000" d="M20.689 22.375c0.256 0 0.512 0.098 0.707 0.293 0.391 0.391 0.391 1.024 0 1.415-1.377 1.374-3.505 1.577-5.358 1.579-1.851-0.003-3.979-0.205-5.357-1.579-0.391-0.391-0.391-1.024 0-1.415 0.195-0.195 0.451-0.293 0.707-0.293s0.511 0.098 0.707 0.293c0.972 0.972 2.697 1.093 3.943 1.093 1.247 0 2.972-0.121 3.944-1.093 0.195-0.195 0.451-0.293 0.706-0.293z"></path>
</svg>
