<?xml version="1.0" encoding="utf-8"?>
<!-- Generated by IcoMoon.io -->
<!DOCTYPE svg PUBLIC "-//W3C//DTD SVG 1.1//EN" "http://www.w3.org/Graphics/SVG/1.1/DTD/svg11.dtd">
<svg version="1.1" xmlns="http://www.w3.org/2000/svg" xmlns:xlink="http://www.w3.org/1999/xlink" width="32" height="32" viewBox="0 0 32 32">
<path fill="#000" d="M5.686 0c1.092 0 2.013 0.386 2.767 1.157 0.752 0.772 1.128 1.703 1.128 2.794s-0.377 2.013-1.128 2.765c-0.753 0.753-1.675 1.128-2.767 1.128s-2.002-0.375-2.736-1.128c-0.734-0.752-1.1-1.674-1.1-2.765 0-1.092 0.366-2.022 1.1-2.794 0.735-0.772 1.646-1.157 2.737-1.157zM2.527 32v-21.841h6.321v21.841h-6.321zM18.216 10.159v1.015c1.203-0.601 2.558-0.865 4.063-0.79 1.505 0.077 2.86 0.415 4.065 1.017 1.278 0.715 2.304 1.748 3.076 3.103 0.77 1.355 1.155 2.746 1.155 4.177v13.319h-6.208v-13.319c0-0.3-0.112-0.659-0.338-1.072-0.225-0.415-0.47-0.659-0.733-0.735-0.64-0.338-1.261-0.47-1.863-0.395-0.601 0.077-1.148 0.226-1.636 0.452-0.564 0.263-1.092 0.621-1.58 1.073v13.995h-6.322v-21.841h6.321z"></path>
</svg>
