<?xml version="1.0" encoding="utf-8"?>
<!-- Generated by IcoMoon.io -->
<!DOCTYPE svg PUBLIC "-//W3C//DTD SVG 1.1//EN" "http://www.w3.org/Graphics/SVG/1.1/DTD/svg11.dtd">
<svg version="1.1" xmlns="http://www.w3.org/2000/svg" xmlns:xlink="http://www.w3.org/1999/xlink" width="32" height="32" viewBox="0 0 32 32">
<path fill="#000" d="M26 30h-20c-3.308 0-6-2.692-6-6v-16c0-3.309 2.692-6 6-6h8.828l4 4h7.172c3.308 0 6 2.691 6 6v12c0 3.308-2.692 6-6 6zM6 6c-1.104 0-2 0.896-2 2v16c0 1.104 0.896 2 2 2h20c1.104 0 2-0.896 2-2v-12c0-1.104-0.896-2-2-2h-8.828l-4-4h-7.172z"></path>
</svg>
